<?xml version="1.0" standalone="no"?><!DOCTYPE svg PUBLIC "-//W3C//DTD SVG 1.1//EN" "http://www.w3.org/Graphics/SVG/1.1/DTD/svg11.dtd"><svg t="1745313096108" class="icon" viewBox="0 0 1024 1024" version="1.1" xmlns="http://www.w3.org/2000/svg" p-id="3926" xmlns:xlink="http://www.w3.org/1999/xlink" width="200" height="200"><path d="M706.57024 291.65568c0-151.3216-108.47744-274.39616-241.792-274.39616S222.98624 140.32896 222.98624 291.65568c0 146.41152 101.5552 266.3936 228.92544 273.9712l-15.85664 44.20608a4.4032 4.4032 0 0 0 1.49504 5.09952 4.81792 4.81792 0 0 0 5.33504 0.18944l31.99488-22.35904 15.24736 21.0944a4.68992 4.68992 0 0 0 4.20864 1.92 4.4544 4.4544 0 0 0 3.65056-2.89792l6.83008-17.91488 17.25952 19.27168a4.5056 4.5056 0 0 0 3.32288 1.44896 4.49536 4.49536 0 0 0 4.25984-6.12864l-18.28864-48.69632c111.04768-24.6528 195.2-136.02816 195.2-269.20448z m-193.75104 298.9056l-6.31296-6.92224a4.67456 4.67456 0 0 0-4.20864-1.44896 4.4544 4.4544 0 0 0-3.36896 2.89792l-6.5024 16.88576-12.91264-17.96096a4.9152 4.9152 0 0 0-3.69664-1.92 4.352 4.352 0 0 0-2.57024 0.89088l-23.90528 16.60416 12.06784-33.5872h3.36896c12.76928 0 25.35424-1.02912 37.6576-3.2768l10.38336 27.83744z m-48.04096-42.56768c-123.35104 0-223.68768-115.02592-223.68768-256.33792S341.4272 35.36384 464.77824 35.36384c123.4432 0 223.73376 114.97984 223.73376 256.29184s-100.29056 256.33792-223.73376 256.33792z" fill="" p-id="3927"></path><path d="M481.9456 613.01248a4.53632 4.53632 0 0 0-8.41728-3.36896c-0.60928 1.54112-14.82752 38.82496 10.5728 106.32192 24.98048 66.51904 13.09696 244.13184-7.39328 301.80864a4.44416 4.44416 0 0 0 2.6112 5.71904l0.1024 0.03584c0.49152 0.19968 1.01376 0.3072 1.54112 0.32768a4.38784 4.38784 0 0 0 4.20864-2.9952c21.42208-60.29824 33.48992-238.65856 7.296-308.07552-23.94624-63.8464-10.66496-99.39456-10.5216-99.77344zM313.82528 214.144c-0.93696 1.73056-22.4512 43.26912-8.79616 69.13536a4.51584 4.51584 0 0 0 8.00256-4.16256c-11.41248-21.70368 8.60672-60.43648 8.79616-60.81024a4.54144 4.54144 0 0 0-1.8688-6.08256 4.59776 4.59776 0 0 0-6.13376 1.92z m11.27424-25.53856l-3.65056 6.64064a4.49024 4.49024 0 0 0 1.77152 6.09792l0.0512 0.03072a4.49024 4.49024 0 0 0 6.08256-1.77664l3.65056-6.68672a4.49536 4.49536 0 1 0-7.90528-4.30592z" fill="" p-id="3928"></path></svg>